<?xml version="1.0" encoding="UTF-8"?>
<svg version="1.1" xmlns="http://www.w3.org/2000/svg" width="1000" height="333">
    <path d="M0 0 C4.64425866 2.49413891 8.31375022 4.94125067 10 10 C10.06802967 11.72795352 10.08495645 13.45835365 10.0625 15.1875 C10.05347656 16.08855469 10.04445312 16.98960938 10.03515625 17.91796875 C10.01775391 18.94857422 10.01775391 18.94857422 10 20 C10.74894531 20.24234375 11.49789062 20.4846875 12.26953125 20.734375 C15.3691211 22.17109476 16.64038047 23.54504206 18.6875 26.25 C19.26886719 26.99765625 19.85023438 27.7453125 20.44921875 28.515625 C24.82887852 35.53190615 24.798871 42.97765337 24 51 C19.21611864 70.44703398 3.44474078 84.76358412 -13 95 C-43.49174917 113.17882534 -81.22777634 123.6906731 -116.58203125 115.90625 C-128.50313661 112.74545406 -137.22886837 107.62524247 -143.90625 97.015625 C-147.48465893 90.42112854 -146.77375295 81.99690217 -145.38671875 74.83203125 C-139.00490789 53.54995714 -120.79614243 39.39429193 -102.12963867 29.12036133 C-79.19221629 16.83646933 -53.32314089 9.19558566 -27.125 10.25 C-23.82680809 10.38570546 -23.82680809 10.38570546 -21 10 C-18.5 7.33333333 -18.5 7.33333333 -17 4 C-11.96521433 0.12708794 -6.22418568 -1.16415325 0 0 Z " fill="#D4040D" transform="translate(163,54)"/>
    <path d="M0 0 C1.24100464 -0.0153479 1.24100464 -0.0153479 2.50708008 -0.03100586 C9.69974341 0.07165417 16.1067826 1.33371472 21.8125 5.875 C25.11041615 10.59125072 24.62814586 15.98693949 23.75 21.4375 C19.89634146 35.29115854 19.89634146 35.29115854 15.75 39.4375 C13.50341797 39.66455078 13.50341797 39.66455078 10.7421875 39.6328125 C9.75605469 39.62636719 8.76992188 39.61992188 7.75390625 39.61328125 C6.72136719 39.59652344 5.68882812 39.57976562 4.625 39.5625 C3.58472656 39.55347656 2.54445313 39.54445312 1.47265625 39.53515625 C-1.10179092 39.51153747 -3.67578212 39.47860149 -6.25 39.4375 C-6.46544006 34.20634607 -5.77370193 29.99964697 -4.25 25 C-3.87875 23.76378906 -3.5075 22.52757812 -3.125 21.25390625 C-2.83625 20.32449219 -2.5475 19.39507812 -2.25 18.4375 C-7.09398269 18.10200255 -7.09398269 18.10200255 -11.0625 20.8125 C-13.7964305 24.0932166 -14.46313889 25.46203555 -14.16796875 29.62890625 C-13.50019648 34.93817355 -11.21088485 37.63841363 -7.5625 41.375 C-6.46343558 42.57588687 -5.36965746 43.78163346 -4.28125 44.9921875 C-3.49427734 45.86568848 -3.49427734 45.86568848 -2.69140625 46.75683594 C3.02118091 53.41765064 6.17754537 60.16260609 6.02734375 69.0078125 C4.59715842 81.53704176 -1.18183452 92.68307206 -10.80859375 100.74609375 C-18.91714827 106.36370032 -27.40629214 107.63156001 -37 107.6875 C-37.86882812 107.708125 -38.73765625 107.72875 -39.6328125 107.75 C-46.87447878 107.79349349 -52.55762968 106.78616347 -58.1875 101.875 C-61.56899483 97.87868793 -61.70484896 95.0580777 -61.6640625 89.92578125 C-61.14792968 85.57760572 -59.98747077 81.69087432 -58.5625 77.5625 C-58.31878662 76.83732178 -58.07507324 76.11214355 -57.82397461 75.36499023 C-56.12839812 70.74404907 -54.38916022 67.34731835 -50.25 64.4375 C-47.15608779 63.83981659 -44.2002174 63.91725849 -41.0625 64.0625 C-40.24330078 64.07667969 -39.42410156 64.09085938 -38.58007812 64.10546875 C-32.61972403 64.25263799 -32.61972403 64.25263799 -30.25 65.4375 C-29.94251781 71.2258523 -31.00630984 75.87530698 -32.75 81.375 C-32.98847656 82.15423828 -33.22695312 82.93347656 -33.47265625 83.73632812 C-34.05642178 85.63940376 -34.65199976 87.53884922 -35.25 89.4375 C-30.40601731 89.77299745 -30.40601731 89.77299745 -26.4375 87.0625 C-22.88763835 82.80266602 -22.77771675 79.75048939 -22.85546875 74.30078125 C-23.51768952 69.49476319 -26.043996 66.92064384 -29.25 63.4375 C-42.99166953 47.73577838 -42.99166953 47.73577838 -42.59765625 35.3671875 C-41.30601281 24.4825518 -36.48044538 14.79399307 -28.1875 7.625 C-19.53932805 1.46818884 -10.37873542 0.09879029 0 0 Z " fill="#0B0D08" transform="translate(264.25,60.5625)"/>
    <path d="M0 0 C2.79473348 2.46202711 3.79923077 4.40531867 4.2734375 8.171875 C4.51075871 14.19618258 3.59790965 19.31433615 1.75 25 C1.54552246 25.64678711 1.34104492 26.29357422 1.13037109 26.95996094 C0.21482312 29.58550064 -0.80733195 31.76253663 -2.5625 33.92578125 C-6.5237117 35.67150756 -10.4797906 35.31049717 -14.75 35.1875 C-16.08224609 35.16719727 -16.08224609 35.16719727 -17.44140625 35.14648438 C-19.62822578 35.11121309 -21.81379966 35.06192752 -24 35 C-25.79963724 31.70798066 -26.05328424 30.25943311 -25.28515625 26.51953125 C-24.88167969 25.29621094 -24.47820313 24.07289062 -24.0625 22.8125 C-22.20074537 18.34882576 -22.20074537 18.34882576 -23 14 C-26.37346335 13.86043273 -26.37346335 13.86043273 -30 15 C-33.8334458 21.43445579 -36.085253 28.50778674 -38.51171875 35.56640625 C-39.13225883 37.35569801 -39.13225883 37.35569801 -39.76533508 39.18113708 C-40.63448237 41.69236647 -41.50134386 44.20424883 -42.36450195 46.7175293 C-43.46591448 49.92330634 -44.57801737 53.12525427 -45.69324017 56.32624912 C-46.76379659 59.40420961 -47.8247852 62.4854622 -48.88671875 65.56640625 C-49.48355721 67.27915489 -49.48355721 67.27915489 -50.092453 69.02650452 C-51.91747396 74.36530048 -53.4976898 79.36958225 -54 85 C-48.94619606 84.76804542 -48.94619606 84.76804542 -44.953125 81.95703125 C-42.20538599 77.79695439 -40.83377045 73.41754177 -39.2890625 68.70703125 C-38.29884861 65.85883538 -37.31118938 63.38879463 -35.41796875 61.0234375 C-31.47228629 59.35337481 -27.54445918 59.64946348 -23.3125 59.75 C-21.99282227 59.75773437 -21.99282227 59.75773437 -20.64648438 59.765625 C-14.1542862 59.8457138 -14.1542862 59.8457138 -13 61 C-11.71338436 70.43518135 -16.88318965 80.44631421 -22.28125 87.9375 C-29.24775896 96.29731075 -37.1854111 101.31807992 -48 103 C-66.29361543 104.01198724 -66.29361543 104.01198724 -73 100 C-76.28548624 97.01681032 -78.7974323 93.83942345 -79.29101562 89.35742188 C-79.65045128 78.78757686 -77.02593627 70.343163 -73.5 60.5 C-72.94550005 58.90631849 -72.39261697 57.31207355 -71.84130859 55.71728516 C-70.49350002 51.8347475 -69.12059421 47.9616466 -67.74060059 44.0904541 C-66.68349231 41.10661048 -65.65871367 38.11188055 -64.6328125 35.1171875 C-63.96546254 33.20245443 -63.29636713 31.28832822 -62.625 29.375 C-62.34076172 28.54935547 -62.05652344 27.72371094 -61.76367188 26.87304688 C-57.62643598 15.43144967 -51.12560966 5.10309954 -40.25 -0.875 C-27.99085445 -6.39814625 -11.54853613 -7.55096593 0 0 Z " fill="#D4000D" transform="translate(541,65)"/>
    <path d="M0 0 C0.495 1.98 0.495 1.98 1 4 C0.31711914 4.0093457 -0.36576172 4.01869141 -1.06933594 4.02832031 C-38.26756304 4.66386791 -74.89282764 14.07535146 -101.86181641 41.24804688 C-111.02288525 51.0356468 -116.64244547 62.64746484 -116.3046875 76.1953125 C-115.58152046 82.85215777 -113.31603031 88.17439008 -108.4375 92.8125 C-90.3941054 106.96091827 -67.40809052 104.63331481 -46 103 C-46 102.34 -46 101.68 -46 101 C-45.3709375 100.86464844 -44.741875 100.72929687 -44.09375 100.58984375 C-37.0977391 98.83030486 -33.03474279 96.06501178 -28 91 C-27.28457031 90.33226562 -26.56914063 89.66453125 -25.83203125 88.9765625 C-21.98149529 85.31539716 -18.85223755 82.09365327 -17 77 C-17 75.68 -17 74.36 -17 73 C-22.50742029 70.24628986 -31.3579446 71.68214781 -37.375 72.5 C-41.63619666 73.02964026 -45.89756172 73.25451249 -50.1875 73.375 C-50.86538574 73.41302734 -51.54327148 73.45105469 -52.24169922 73.49023438 C-56.11463811 73.55489429 -58.47089734 72.99893776 -61.42578125 70.6015625 C-64.70393163 67.2885911 -65.18211024 65.77932861 -65.3125 61.25 C-65.24163587 56.31077033 -64.30194493 53.80993645 -61 50 C-60.57203125 49.48308594 -60.1440625 48.96617188 -59.703125 48.43359375 C-54.41616595 42.56070883 -47.66013939 38.49660622 -41.0390625 34.29931641 C-38.99135465 32.99449108 -36.9648957 31.6603234 -34.9375 30.32421875 C-33.6261879 29.48511987 -32.3137257 28.647815 -31 27.8125 C-30.401875 27.41369629 -29.80375 27.01489258 -29.1875 26.60400391 C-25.96797583 24.60886909 -24.07066953 23.99838049 -20.25 24.0859375 C-15.52052377 25.41610269 -14.57395919 26.89775253 -12 31 C-12.09228516 33.00097656 -12.09228516 33.00097656 -13 35 C-14.95849609 36.61230469 -14.95849609 36.61230469 -17.5234375 38.171875 C-18.45784668 38.75050293 -19.39225586 39.32913086 -20.35498047 39.92529297 C-21.35158691 40.52744629 -22.34819336 41.12959961 -23.375 41.75 C-25.38708084 42.9947097 -27.39751622 44.24208344 -29.40625 45.4921875 C-30.37304688 46.09256836 -31.33984375 46.69294922 -32.3359375 47.31152344 C-37.06442443 50.30842736 -41.56523922 53.58374887 -46 57 C-44.91203125 56.855625 -43.8240625 56.71125 -42.703125 56.5625 C-16.63225867 53.20802274 -16.63225867 53.20802274 -7 60 C-3.78473573 63.0300532 -1.1480178 66.09854063 -0.796875 70.609375 C-0.77367187 72.16398437 -0.77367187 72.16398437 -0.75 73.75 C-0.72421875 74.77609375 -0.6984375 75.8021875 -0.671875 76.859375 C-1.06543768 80.62633212 -1.92033742 82.83057686 -4 86 C-6.91796875 88.1171875 -6.91796875 88.1171875 -10.1875 89.875 C-11.81751953 90.76832031 -11.81751953 90.76832031 -13.48046875 91.6796875 C-14.31191406 92.11539063 -15.14335938 92.55109375 -16 93 C6.14771864 81.94792736 27.24417568 69.72470219 36.93359375 45.68359375 C39.3176273 37.54499647 38.76180513 28.59679713 35 21 C33.68329581 19.31172405 33.68329581 19.31172405 32.25 17.8125 C30 15 30 15 30.1875 11.625 C30.455625 10.75875 30.72375 9.8925 31 9 C37.89740468 12.31075425 42.2644728 16.66712558 45.140625 23.84765625 C48.02649307 34.43354502 45.96531446 44.43180279 41 54 C25.02948368 80.34604022 -5.68597756 96.16416243 -34.76953125 103.50390625 C-57.73943449 108.99245822 -86.26512356 112.7967654 -108 101 C-115.38910918 96.38331352 -121.20364076 90.38907773 -124 82 C-125.22033402 66.97588772 -121.31249971 55.75112484 -112 44 C-88.83803521 17.02732634 -51.82086684 3.34504809 -17.1328125 0.26953125 C-11.42077118 -0.15106085 -5.72488415 -0.18206345 0 0 Z " fill="#FCBF03" transform="translate(141,64)"/>
    <path d="M0 0 C1.03350586 0.00773437 1.03350586 0.00773437 2.08789062 0.015625 C7.15788899 0.09538899 7.15788899 0.09538899 8.3125 1.25 C7.83963307 8.18538164 5.43881346 14.67326303 3.3125 21.25 C3.77398438 20.8890625 4.23546875 20.528125 4.7109375 20.15625 C10.14779931 16.28812697 14.6799569 15.17841566 21.3125 16.25 C25.07153614 17.76807229 25.07153614 17.76807229 26.3125 20.25 C27.04855331 27.50925339 25.67362001 33.56031997 23.2421875 40.3515625 C22.92347687 41.27286957 22.60476624 42.19417664 22.27639771 43.1434021 C21.60299396 45.07710458 20.92187707 47.0081368 20.23339844 48.93652344 C19.19034931 51.8669948 18.17964405 54.80723579 17.171875 57.75 C16.50972068 59.6386909 15.84571904 61.52673538 15.1796875 63.4140625 C14.88254852 64.28197418 14.58540955 65.14988586 14.27926636 66.0440979 C11.28557036 74.31072062 7.10506888 80.92079507 -0.6875 85.25 C-5.65203875 86.90484625 -9.9712179 87.03662929 -14.6875 84.875 C-15.3475 84.33875 -16.0075 83.8025 -16.6875 83.25 C-16.6875 82.59 -16.6875 81.93 -16.6875 81.25 C-17.3475 81.25 -18.0075 81.25 -18.6875 81.25 C-19.0175 82.24 -19.3475 83.23 -19.6875 84.25 C-22.73732258 85.77491129 -25.90872539 85.39361434 -29.25 85.375 C-29.94802734 85.37886719 -30.64605469 85.38273437 -31.36523438 85.38671875 C-36.56086006 85.37663994 -36.56086006 85.37663994 -37.6875 84.25 C-37.29758164 76.77731612 -34.81994773 70.08292896 -32.390625 63.0546875 C-31.95498349 61.77708504 -31.51999853 60.49925853 -31.08563232 59.22122192 C-29.94363845 55.86728894 -28.79228878 52.51664101 -27.63903809 49.16656494 C-26.71138448 46.46697511 -25.79017231 43.76521043 -24.86937332 41.06327629 C-20.07315548 26.99004795 -20.07315548 26.99004795 -17.88830566 20.72503662 C-17.04292451 18.27857043 -16.21970651 15.83088208 -15.41540527 13.37115479 C-14.98906533 12.10169392 -14.56251706 10.832303 -14.13574219 9.56298828 C-13.76165222 8.4246756 -13.38756226 7.28636292 -13.00213623 6.11355591 C-10.19329527 -0.0046941 -6.21654973 -0.18927649 0 0 Z M-2.6875 35.25 C-3.78481304 37.77605269 -4.67036916 40.14780297 -5.484375 42.76171875 C-5.7228717 43.48994339 -5.96136841 44.21816803 -6.20709229 44.96846008 C-6.96337394 47.28754655 -7.70061037 49.6121878 -8.4375 51.9375 C-8.94797323 53.5140757 -9.45967821 55.09025315 -9.97265625 56.66601562 C-11.22525932 60.52287401 -12.4608211 64.38482212 -13.6875 68.25 C-12.0375 68.58 -10.3875 68.91 -8.6875 69.25 C-4.65280414 64.47878874 -3.12335096 58.59510724 -1.13378906 52.77783203 C-0.43819458 50.75202285 0.27624146 48.7335366 0.9921875 46.71484375 C1.43865817 45.42487944 1.88400936 44.13452701 2.328125 42.84375 C2.73321289 41.67521484 3.13830078 40.50667969 3.55566406 39.30273438 C4.28420753 36.36411903 4.40058554 35.01874349 3.3125 32.25 C0.35599043 32.25 -0.55882875 33.20474143 -2.6875 35.25 Z " fill="#D4000D" transform="translate(634.6875,66.75)"/>
    <path d="M0 0 C3.08952751 1.82393793 3.84374599 2.53123796 5 6 C5.38068979 11.61377316 4.35518229 15.91885465 2.55078125 21.13671875 C2.29628708 21.89741165 2.04179291 22.65810455 1.77958679 23.44184875 C1.24058038 25.04615745 0.69652439 26.64877752 0.14770508 28.24975586 C-0.6779255 30.65955456 -1.48776627 33.07419299 -2.29492188 35.49023438 C-11.46799514 62.75555379 -11.46799514 62.75555379 -18 68 C-21.5431571 69.74205224 -24.56462732 70.34353745 -28.5 70.4375 C-29.4178125 70.47746094 -30.335625 70.51742187 -31.28125 70.55859375 C-35.01831523 69.79077719 -36.54298365 67.8175568 -39 65 C-39.40992188 66.13179688 -39.81984375 67.26359375 -40.2421875 68.4296875 C-40.78616785 69.911565 -41.33045463 71.39333004 -41.875 72.875 C-42.14441406 73.62136719 -42.41382813 74.36773437 -42.69140625 75.13671875 C-44.7734375 80.7734375 -44.7734375 80.7734375 -47 83 C-49.9093558 83.14517744 -52.719946 83.18630796 -55.625 83.125 C-56.42679687 83.11597656 -57.22859375 83.10695313 -58.0546875 83.09765625 C-60.03658523 83.07406223 -62.01832981 83.03819065 -64 83 C-64.37296034 77.02567261 -63.10821172 72.51616676 -61.0703125 66.9296875 C-60.76417023 66.06264191 -60.45802795 65.19559631 -60.14260864 64.30227661 C-59.14698519 61.48942181 -58.13630278 58.68225143 -57.125 55.875 C-56.4361171 53.94048037 -55.74829736 52.00558184 -55.06152344 50.0703125 C-54.02755015 47.15700312 -52.99283037 44.24398902 -51.95385742 41.3324585 C-49.87880319 35.51171558 -47.85137055 29.67789771 -45.8828125 23.8203125 C-45.65284576 23.1387912 -45.42287903 22.4572699 -45.1859436 21.75509644 C-44.13455581 18.63766778 -43.09082483 15.51803663 -42.05908203 12.39404297 C-41.69411621 11.31525879 -41.32915039 10.23647461 -40.953125 9.125 C-40.64536133 8.19945313 -40.33759766 7.27390625 -40.02050781 6.3203125 C-38.95432854 3.89615753 -38.11519044 2.58198418 -36 1 C-33.21841939 0.70228623 -30.71221166 0.58084013 -27.9375 0.625 C-27.20466797 0.61339844 -26.47183594 0.60179688 -25.71679688 0.58984375 C-23.58984375 0.6015625 -23.58984375 0.6015625 -20 1 C-19.34 1.99 -18.68 2.98 -18 4 C-16.6078125 3.01 -16.6078125 3.01 -15.1875 2 C-10.43323229 -0.72642699 -5.3419379 -0.90804764 0 0 Z M-20 16 C-24.04107463 19.60970494 -25.95770523 22.58141014 -27.7109375 27.69140625 C-27.92819489 28.31853012 -28.14545227 28.94565399 -28.36929321 29.59178162 C-28.82146692 30.90798092 -29.26648317 32.2266592 -29.70458984 33.54760742 C-30.37642761 35.56679062 -31.075004 37.57523388 -31.77734375 39.58398438 C-34.68506689 46.68826701 -34.68506689 46.68826701 -34 54 C-31.45481265 53.64893968 -30.26882044 53.29619415 -28.51831055 51.36743164 C-26.66163297 48.47239989 -25.63625662 45.62488118 -24.51953125 42.37109375 C-24.30181564 41.74018326 -24.08410004 41.10927277 -23.85978699 40.45924377 C-23.40345652 39.13165203 -22.95066198 37.80284019 -22.5012207 36.47290039 C-21.81257028 34.4377077 -21.11129145 32.40719735 -20.40820312 30.37695312 C-17.94491411 23.83559158 -17.94491411 23.83559158 -17 17 C-17.99 16.67 -18.98 16.34 -20 16 Z " fill="#0B0D08" transform="translate(327,83)"/>
    <path d="M0 0 C0.75732422 0.00966797 1.51464844 0.01933594 2.29492188 0.02929688 C3.47344727 0.06700195 3.47344727 0.06700195 4.67578125 0.10546875 C5.47306641 0.11900391 6.27035156 0.13253906 7.09179688 0.14648438 C9.05758092 0.18179786 11.02301707 0.23560428 12.98828125 0.29296875 C12.4641152 7.02420853 11.07603431 12.79143069 8.828125 19.140625 C8.36413048 20.48657997 8.36413048 20.48657997 7.89076233 21.85972595 C6.91119434 24.69476751 5.91873914 27.52509279 4.92578125 30.35546875 C4.25499874 32.28941525 3.58506845 34.22365756 2.91601562 36.15820312 C1.28326769 40.87326799 -0.36104495 45.58415108 -2.01171875 50.29296875 C-0.69171875 50.62296875 0.62828125 50.95296875 1.98828125 51.29296875 C4.80575349 45.20876397 7.21518853 39.08078942 9.37109375 32.734375 C9.98689345 30.94984021 10.60278135 29.16533585 11.21875 27.38085938 C12.17296408 24.60098817 13.12524185 21.82046989 14.07568359 19.03930664 C15.00258427 16.33178097 15.93646506 13.62674083 16.87109375 10.921875 C17.15445587 10.08547989 17.43781799 9.24908478 17.72976685 8.38734436 C18.13060989 7.22989967 18.13060989 7.22989967 18.53955078 6.04907227 C18.88785446 5.03055931 18.88785446 5.03055931 19.24319458 3.99147034 C19.98828125 2.29296875 19.98828125 2.29296875 21.98828125 0.29296875 C24.89763705 0.14779131 27.70822725 0.10666079 30.61328125 0.16796875 C31.41507813 0.17699219 32.216875 0.18601562 33.04296875 0.1953125 C35.02486648 0.21890652 37.00661106 0.2547781 38.98828125 0.29296875 C39.40503965 6.49087381 37.94102393 11.29619242 35.8828125 17.109375 C35.56173019 18.04289291 35.24064789 18.97641083 34.90983582 19.93821716 C33.88349971 22.91421178 32.84234666 25.88477454 31.80078125 28.85546875 C31.11947429 30.82453498 30.43912673 32.79393344 29.75976562 34.76367188 C28.14274224 39.44401781 26.50596641 44.11715126 24.862854 48.78839111 C24.0586276 51.09151278 23.27073414 53.39936484 22.48974609 55.71044922 C22.15471321 56.68738991 22.15471321 56.68738991 21.81291199 57.68406677 C21.23711511 59.36313131 20.66839264 61.04461744 20.1003418 62.72631836 C18.99582688 65.27555335 18.22974002 66.6720848 15.98828125 68.29296875 C13.17701082 68.51011116 10.59994675 68.57581151 7.80078125 68.48046875 C7.05119141 68.46693359 6.30160156 68.45339844 5.52929688 68.43945312 C3.68198358 68.40415414 1.83504059 68.35034792 -0.01171875 68.29296875 C-0.67171875 66.97296875 -1.33171875 65.65296875 -2.01171875 64.29296875 C-3.40390625 65.25203125 -3.40390625 65.25203125 -4.82421875 66.23046875 C-9.48710432 69.24763 -13.53220849 69.91248453 -19.01171875 69.29296875 C-23.58116319 67.15407986 -23.58116319 67.15407986 -25.01171875 64.29296875 C-25.38165965 58.86702781 -24.37488165 54.43534661 -22.59765625 49.3671875 C-22.2194725 48.24749321 -22.2194725 48.24749321 -21.83364868 47.10517883 C-21.02788608 44.72677572 -20.20772823 42.35364629 -19.38671875 39.98046875 C-18.85839061 38.43067377 -18.33103937 36.88054541 -17.8046875 35.33007812 C-17.01501368 33.00509018 -16.2231148 30.68101798 -15.42303467 28.35958862 C-14.03308918 24.32473166 -12.67852812 20.28253763 -11.37988281 16.21728516 C-11.11470856 15.39500931 -10.8495343 14.57273346 -10.57632446 13.72554016 C-10.0715129 12.15485969 -9.5738724 10.58185041 -9.08456421 9.00627136 C-7.36625314 3.68901656 -6.0424181 -0.13629515 0 0 Z " fill="#D4000D" transform="translate(575.01171875,83.70703125)"/>
    <path d="M0 0 C2.47234688 2.15537933 3.83405943 3.6352822 4.23745728 6.95288086 C4.26556548 12.53363783 3.38568123 17.17283119 1.5859375 22.4375 C1.20775375 23.58496704 1.20775375 23.58496704 0.82192993 24.75561523 C0.28879441 26.36110319 -0.25106344 27.9643733 -0.79736328 29.56542969 C-1.62088406 31.98789259 -2.41520633 34.41858089 -3.20703125 36.8515625 C-9.95743954 57.19386629 -9.95743954 57.19386629 -18.4375 62.4375 C-19.13746094 62.88996094 -19.83742188 63.34242188 -20.55859375 63.80859375 C-28.76510373 67.81337062 -38.80343045 68.61092502 -47.64453125 66.3125 C-51.05457654 64.79411249 -52.77530276 63.29278732 -55.0625 60.3125 C-57.06921416 53.22210997 -54.68295449 46.11802987 -52.33984375 39.34375 C-52.0716835 38.55657593 -51.80352325 37.76940186 -51.52723694 36.95837402 C-50.95986856 35.30626183 -50.38732393 33.65591889 -49.80981445 32.00732422 C-48.94214443 29.51334964 -48.10841953 27.00962967 -47.27539062 24.50390625 C-43.69531218 14.03919199 -39.98021952 5.09344253 -29.8125 -0.5 C-21.05931151 -4.48039729 -8.25771041 -5.20594787 0 0 Z M-20.9206543 11.47631836 C-23.69528472 14.8438603 -24.8670917 18.28342287 -26.26953125 22.37890625 C-26.55479172 23.1873851 -26.84005219 23.99586395 -27.13395691 24.82884216 C-27.7318665 26.53229598 -28.32406784 28.23776285 -28.91088867 29.94506836 C-29.81239803 32.56220397 -30.73583065 35.17083903 -31.66210938 37.77929688 C-32.24090373 39.43703958 -32.8184223 41.09522839 -33.39453125 42.75390625 C-33.80998955 43.92585289 -33.80998955 43.92585289 -34.23384094 45.12147522 C-35.81212616 49.51162956 -35.81212616 49.51162956 -35 54 C-32.56822788 53.90847797 -32.56822788 53.90847797 -30 53 C-28.4621487 50.71758534 -28.4621487 50.71758534 -27.4921875 47.77734375 C-27.0806543 46.68921387 -26.66912109 45.60108398 -26.24511719 44.47998047 C-25.83422852 43.33158691 -25.42333984 42.18319336 -25 41 C-24.5865332 39.89672363 -24.17306641 38.79344727 -23.74707031 37.65673828 C-22.50318749 34.30393985 -21.30886738 30.93691146 -20.125 27.5625 C-19.50238281 25.84643555 -19.50238281 25.84643555 -18.8671875 24.09570312 C-18.48046875 22.99291016 -18.09375 21.89011719 -17.6953125 20.75390625 C-17.34484863 19.76720947 -16.99438477 18.7805127 -16.63330078 17.76391602 C-15.94858794 14.77562224 -16.17234164 12.92348142 -17 10 C-19.13946568 9.79685888 -19.13946568 9.79685888 -20.9206543 11.47631836 Z " fill="#0B0D08" transform="translate(376,86)"/>
    <path d="M0 0 C4.64425866 2.49413891 8.31375022 4.94125067 10 10 C10.09293964 11.43509741 10.12996751 12.87440484 10.125 14.3125 C10.125 15.11171875 10.125 15.9109375 10.125 16.734375 C10 19 10 19 9.125 22.0625 C8.94808124 26.22009095 10.94456315 27.87221324 13.49609375 31.00390625 C17.63005267 36.49079718 17.61327689 43.42211074 17 50 C13.99257951 67.08761641 1.18721408 80.44622271 -12.52441406 90.13110352 C-18.36922809 94.05977468 -24.48945848 97.46978357 -30.75 100.6875 C-31.42981934 101.03925293 -32.10963867 101.39100586 -32.81005859 101.75341797 C-37.63111053 104.12296316 -37.63111053 104.12296316 -41 103 C-39.60201172 102.30777344 -39.60201172 102.30777344 -38.17578125 101.6015625 C-19.4908604 92.13081902 -2.41538297 79.3444461 5.09375 59.04296875 C5.85833598 56.37074077 6.47253813 53.72852457 7 51 C7.20238281 49.96875 7.40476563 48.9375 7.61328125 47.875 C8.10474679 45.25385044 8.56737118 42.63140117 9 40 C8.34 40 7.68 40 7 40 C5.35 37.03 3.7 34.06 2 31 C0.02 31.495 0.02 31.495 -2 32 C-7.48858555 32.66400958 -12.44777072 33.07616098 -17 29.5625 C-19.48583008 26.96888761 -20.63706336 24.70064173 -21.6875 21.27734375 C-21.93886719 20.47417725 -22.19023437 19.67101074 -22.44921875 18.84350586 C-22.63097656 18.23514893 -22.81273437 17.62679199 -23 17 C-45.84278563 16.16233755 -45.84278563 16.16233755 -68 21 C-69.22058105 21.41064697 -69.22058105 21.41064697 -70.46582031 21.82958984 C-92.24039946 29.18478913 -110.42789336 40.20045041 -123 60 C-123.43054688 60.67546875 -123.86109375 61.3509375 -124.3046875 62.046875 C-128.99699988 70.33548519 -130.10736965 80.77440397 -128 90 C-125.45336374 98.01826618 -119.48588733 103.27026197 -112.25 107.25 C-102.11494342 111.70937303 -92.20298121 112.4104469 -81.25 112.1875 C-79.32800781 112.16719727 -79.32800781 112.16719727 -77.3671875 112.14648438 C-74.24433305 112.11152705 -71.12240459 112.0624609 -68 112 C-68 112.33 -68 112.66 -68 113 C-88.63255873 116.14829234 -111.10552189 117.9652813 -129 105 C-134.84094163 99.81522309 -138.44313661 94.21569229 -139.27734375 86.40234375 C-139.73555919 73.37069663 -134.5271307 61.92424758 -125.78125 52.37109375 C-119.43381248 45.73772772 -112.85686613 39.8041984 -105 35 C-104.14921875 34.443125 -103.2984375 33.88625 -102.421875 33.3125 C-81.8978578 20.47065683 -57.35195947 13.52055942 -33.25 13.875 C-32.0640625 13.88402344 -30.878125 13.89304687 -29.65625 13.90234375 C-26.77061093 13.92561503 -23.88542145 13.95830316 -21 14 C-20.88011719 13.06542969 -20.76023437 12.13085938 -20.63671875 11.16796875 C-19.80207517 7.0152329 -18.24060521 5.66449762 -15 3 C-10.16056234 -0.18962937 -5.66198052 -0.9335165 0 0 Z " fill="#FDC300" transform="translate(163,54)"/>
    <path d="M0 0 C0.259021 0.68562012 0.51804199 1.37124023 0.78491211 2.07763672 C1.30710327 3.42752686 1.30710327 3.42752686 1.83984375 4.8046875 C2.35212524 6.14249268 2.35212524 6.14249268 2.87475586 7.50732422 C4.69707517 11.54418257 6.0558517 12.84864638 10 15 C15.12625552 15.62497164 20.02775465 15.42397637 25 14 C25.83878455 15.28813342 26.67086783 16.58063256 27.5 17.875 C27.9640625 18.59429687 28.428125 19.31359375 28.90625 20.0546875 C30 22 30 22 30 24 C30.66 24 31.32 24 32 24 C31.67 27.63 31.34 31.26 31 35 C30.01 35 29.02 35 28 35 C26.58302033 36.76758863 26.58302033 36.76758863 25.3125 39.0625 C21.96751664 44.36920292 17.69112002 49.15443999 12 52 C7.66660697 52.51932608 4.11311472 52.5689253 0.1875 50.5625 C-5.31604721 44.11548756 -6.71342573 36.51141412 -8.19140625 28.33203125 C-9.31518753 23.70118376 -10.60716434 20.07141205 -14.4375 17.125 C-29.06600253 12.50547289 -44.20568287 19.99200035 -57.50463867 25.76391602 C-62.70026381 28 -62.70026381 28 -66 28 C-67.29758261 25.40483479 -67.13269102 23.45816973 -67.125 20.5625 C-67.12757812 19.59441406 -67.13015625 18.62632813 -67.1328125 17.62890625 C-67 15 -67 15 -66 12 C-64.21264648 10.98852539 -64.21264648 10.98852539 -61.87109375 10.09765625 C-61.01 9.76636719 -60.14890625 9.43507813 -59.26171875 9.09375 C-57.86373047 8.58328125 -57.86373047 8.58328125 -56.4375 8.0625 C-55.47585937 7.71058594 -54.51421875 7.35867187 -53.5234375 6.99609375 C-50.68900033 5.97705509 -47.84625504 4.98546191 -45 4 C-44.30922363 3.74976074 -43.61844727 3.49952148 -42.90673828 3.24169922 C-29.19788734 -1.61404926 -14.32408159 -0.37756095 0 0 Z " fill="#FDC100" transform="translate(140,70)"/>
    <path d="M0 0 C3.125 1.4375 3.125 1.4375 5 4 C5.68171644 11.57379468 3.88116992 17.34598392 1.1875 24.375 C0.83107422 25.35855469 0.47464844 26.34210938 0.10742188 27.35546875 C-3.0188862 35.74200528 -3.0188862 35.74200528 -6 38 C-8.81127043 38.21714241 -11.3883345 38.28284276 -14.1875 38.1875 C-14.93708984 38.17396484 -15.68667969 38.16042969 -16.45898438 38.14648438 C-18.30629767 38.11118539 -20.15324066 38.05737917 -22 38 C-23.27031176 33.66176549 -22.63454623 31.1243302 -21.0625 26.9375 C-19.68309932 23.22948394 -19 21.01286897 -19 17 C-21.33930583 17.93529816 -22.71384223 18.52523057 -24.03491211 20.71704102 C-24.30053955 21.45108154 -24.56616699 22.18512207 -24.83984375 22.94140625 C-25.16968262 23.83746582 -25.49952148 24.73352539 -25.83935547 25.65673828 C-26.41387451 27.31165283 -26.41387451 27.31165283 -27 29 C-27.23503235 29.67069519 -27.4700647 30.34139038 -27.71221924 31.03240967 C-29.98384246 37.51637853 -32.22671968 44.01050672 -34.43920898 50.51489258 C-35.28626113 53.00098708 -36.14416974 55.48311209 -37.00390625 57.96484375 C-37.26023331 58.72731918 -37.51656036 59.48979462 -37.78065491 60.27537537 C-39.99812432 66.63048846 -39.99812432 66.63048846 -43 69 C-45.79446102 69.24400699 -48.34099436 69.32828487 -51.125 69.25 C-51.86621094 69.24484375 -52.60742188 69.2396875 -53.37109375 69.234375 C-58.84569225 69.15430775 -58.84569225 69.15430775 -60 68 C-59.55405451 61.08662312 -57.07209814 54.72005783 -54.8515625 48.20703125 C-54.43836761 46.98344406 -54.02517273 45.75985687 -53.59945679 44.49919128 C-52.72760118 41.92001553 -51.85122436 39.34243249 -50.97167969 36.76586914 C-49.8472477 33.47046475 -48.73513284 30.17105448 -47.62645912 26.87032032 C-46.56265117 23.70934109 -45.48781824 20.55214526 -44.4140625 17.39453125 C-43.81859116 15.62104057 -43.81859116 15.62104057 -43.21109009 13.8117218 C-42.83415009 12.71345566 -42.45721008 11.61518951 -42.06884766 10.48364258 C-41.74099274 9.51880447 -41.41313782 8.55396637 -41.0753479 7.55989075 C-39.99481582 4.98765894 -38.84424335 3.08708942 -37 1 C-35.09887695 0.54589844 -35.09887695 0.54589844 -32.98828125 0.609375 C-32.23095703 0.62226562 -31.47363281 0.63515625 -30.69335938 0.6484375 C-29.90767578 0.68195313 -29.12199219 0.71546875 -28.3125 0.75 C-27.51521484 0.76804687 -26.71792969 0.78609375 -25.89648438 0.8046875 C-23.93047551 0.85177753 -21.96508506 0.92352101 -20 1 C-19.505 3.475 -19.505 3.475 -19 6 C-18.2575 5.38125 -17.515 4.7625 -16.75 4.125 C-11.26141502 -0.1161793 -6.86287359 -0.85370156 0 0 Z " fill="#0B0D08" transform="translate(426,83)"/>
    <path d="M0 0 C1.24007812 0.00386719 2.48015625 0.00773437 3.7578125 0.01171875 C6.875 0.3125 6.875 0.3125 8.875 2.3125 C8.66796875 4.40625 8.66796875 4.40625 8.0625 6.8125 C7.77439453 8.00359375 7.77439453 8.00359375 7.48046875 9.21875 C6.875 11.3125 6.875 11.3125 5.875 13.3125 C10.825 13.3125 15.775 13.3125 20.875 13.3125 C20.13942613 23.16918992 20.13942613 23.16918992 16.875 27.3125 C13.1382157 29.80368953 11.13048181 29.5190226 6.6875 29.4375 C5.41519531 29.41945313 4.14289063 29.40140625 2.83203125 29.3828125 C1.85621094 29.35960938 0.88039063 29.33640625 -0.125 29.3125 C-0.26035156 29.87453125 -0.39570313 30.4365625 -0.53515625 31.015625 C-2.48102941 38.61268668 -5.03872816 45.94751023 -7.69946289 53.31738281 C-7.99715576 54.14850586 -8.29484863 54.97962891 -8.6015625 55.8359375 C-8.87049316 56.57763184 -9.13942383 57.31932617 -9.41650391 58.08349609 C-10.17597358 60.4728683 -10.67560885 62.84762479 -11.125 65.3125 C-9.825625 65.456875 -8.52625 65.60125 -7.1875 65.75 C-3.25 66.1875 -3.25 66.1875 -2.125 67.3125 C-2.5191718 72.33819044 -3.40152662 77.58902662 -7.125 81.3125 C-11.07614545 81.59308489 -15.04007723 81.54431436 -19 81.5625 C-20.11503906 81.583125 -21.23007812 81.60375 -22.37890625 81.625 C-23.44753906 81.63015625 -24.51617187 81.6353125 -25.6171875 81.640625 C-26.60058105 81.6499707 -27.58397461 81.65931641 -28.59716797 81.66894531 C-31.60572664 81.24471355 -32.27759196 80.66126975 -34.125 78.3125 C-35.3919572 72.03427325 -33.43151458 66.0464415 -31.31640625 60.19140625 C-31.03022934 59.36543442 -30.74405243 58.53946259 -30.44920349 57.6884613 C-29.54157084 55.07923565 -28.61477347 52.47730144 -27.6875 49.875 C-27.06841626 48.102648 -26.450566 46.32986463 -25.83398438 44.55664062 C-21.40389813 31.87029626 -21.40389813 31.87029626 -20.125 29.3125 C-22.105 28.9825 -24.085 28.6525 -26.125 28.3125 C-25.76087085 22.54921456 -25.43626966 17.62376966 -21.125 13.3125 C-18.79202567 13.27157063 -16.45794775 13.27008277 -14.125 13.3125 C-13.95484375 12.62542969 -13.7846875 11.93835938 -13.609375 11.23046875 C-13.36703125 10.32941406 -13.1246875 9.42835937 -12.875 8.5 C-12.64296875 7.60667969 -12.4109375 6.71335937 -12.171875 5.79296875 C-9.72519163 -0.00421014 -5.8513914 -0.07940301 0 0 Z " fill="#0B0D08" transform="translate(458.125,70.6875)"/>
    <path d="M0 0 C0.495 1.98 0.495 1.98 1 4 C0.31711914 4.0093457 -0.36576172 4.01869141 -1.06933594 4.02832031 C-38.26756304 4.66386791 -74.89282764 14.07535146 -101.86181641 41.24804688 C-111.02288525 51.0356468 -116.64244547 62.64746484 -116.3046875 76.1953125 C-115.58152046 82.85215777 -113.31603031 88.17439008 -108.4375 92.8125 C-92.80319717 105.0718703 -72.73801962 105.46438485 -53.875 103.25 C-23.54932713 98.92633971 7.9281017 85.85266934 28 62 C34.96304252 52.1554105 39.21687457 42.26381406 38 30 C37.00744165 25.18454114 35.62397365 21.43082829 32.25 17.8125 C30 15 30 15 30.1875 11.625 C30.455625 10.75875 30.72375 9.8925 31 9 C37.89740468 12.31075425 42.2644728 16.66712558 45.140625 23.84765625 C48.02649307 34.43354502 45.96531446 44.43180279 41 54 C25.02948368 80.34604022 -5.68597756 96.16416243 -34.76953125 103.50390625 C-57.73943449 108.99245822 -86.26512356 112.7967654 -108 101 C-115.38910918 96.38331352 -121.20364076 90.38907773 -124 82 C-125.22033402 66.97588772 -121.31249971 55.75112484 -112 44 C-88.83803521 17.02732634 -51.82086684 3.34504809 -17.1328125 0.26953125 C-11.42077118 -0.15106085 -5.72488415 -0.18206345 0 0 Z " fill="#12130E" transform="translate(141,64)"/>
    <path d="M0 0 C0.69351563 0.00064453 1.38703125 0.00128906 2.1015625 0.00195312 C7.23456743 0.04706743 7.23456743 0.04706743 8.375 1.1875 C8.00428319 8.79576473 5.86742592 15.35722405 3.33203125 22.5 C2.72291145 24.25159424 2.72291145 24.25159424 2.10148621 26.03857422 C0.80567775 29.75804479 -0.50319161 33.47276296 -1.8125 37.1875 C-2.67338856 39.65204263 -3.53342247 42.11688398 -4.39257812 44.58203125 C-6.04515002 49.31952313 -7.70687086 54.05363799 -9.37646484 58.78515625 C-10.76478439 62.72291942 -12.13359188 66.66582334 -13.47119141 70.62109375 C-13.74280594 71.41628418 -14.01442047 72.21147461 -14.29426575 73.03076172 C-14.77914766 74.45316286 -15.25752845 75.87780671 -15.72758484 77.30517578 C-17.75611563 83.21314231 -17.75611563 83.21314231 -20.625 85.1875 C-23.43627043 85.40464241 -26.0133345 85.47034276 -28.8125 85.375 C-29.56208984 85.36146484 -30.31167969 85.34792969 -31.08398438 85.33398438 C-32.93129767 85.29868539 -34.77824066 85.24487917 -36.625 85.1875 C-37.72969988 81.16086652 -37.47240922 78.75531559 -36.12133789 74.82836914 C-35.76668961 73.7785939 -35.41204132 72.72881866 -35.04664612 71.64723206 C-34.65097946 70.51712204 -34.25531281 69.38701202 -33.84765625 68.22265625 C-33.44348984 67.03892929 -33.03932343 65.85520233 -32.62290955 64.63560486 C-31.54139908 61.47627545 -30.44935128 58.32099029 -29.35229492 55.16705322 C-28.26874283 52.04243995 -27.20082571 48.91248964 -26.13085938 45.78320312 C-24.05483143 39.72703528 -21.95313655 33.68029002 -19.83428955 27.63897705 C-19.03628444 25.36136179 -18.24173499 23.08253244 -17.4508667 20.8024292 C-16.3721445 17.69655624 -15.28010921 14.59572199 -14.18359375 11.49609375 C-13.86600601 10.57554703 -13.54841827 9.65500031 -13.22120667 8.70655823 C-12.92189743 7.87067673 -12.6225882 7.03479523 -12.31420898 6.17358398 C-12.05880844 5.44735336 -11.8034079 4.72112274 -11.54026794 3.97288513 C-9.09915154 -0.78892584 -4.6089287 -0.0823023 0 0 Z " fill="#D4000D" transform="translate(562.625,66.8125)"/>
    <path d="M0 0 C1.70736328 0.01353516 1.70736328 0.01353516 3.44921875 0.02734375 C6.21637881 0.0505972 8.9830676 0.08327132 11.75 0.125 C11.42 1.115 11.09 2.105 10.75 3.125 C9.95529297 3.10405273 9.16058594 3.08310547 8.34179688 3.06152344 C-13.28000667 2.41856017 -13.28000667 2.41856017 -34.25 7.125 C-35.0637207 7.39876465 -35.87744141 7.6725293 -36.71582031 7.95458984 C-58.49039946 15.30978913 -76.67789336 26.32545041 -89.25 46.125 C-89.68054688 46.80046875 -90.11109375 47.4759375 -90.5546875 48.171875 C-95.24699988 56.46048519 -96.35736965 66.89940397 -94.25 76.125 C-91.70336374 84.14326618 -85.73588733 89.39526197 -78.5 93.375 C-68.36494342 97.83437303 -58.45298121 98.5354469 -47.5 98.3125 C-45.57800781 98.29219727 -45.57800781 98.29219727 -43.6171875 98.27148438 C-40.49433305 98.23652705 -37.37240459 98.1874609 -34.25 98.125 C-34.25 98.455 -34.25 98.785 -34.25 99.125 C-54.88255873 102.27329234 -77.35552189 104.0902813 -95.25 91.125 C-101.09094163 85.94022309 -104.69313661 80.34069229 -105.52734375 72.52734375 C-105.98555919 59.49569663 -100.7771307 48.04924758 -92.03125 38.49609375 C-85.68381248 31.86272772 -79.10686613 25.9291984 -71.25 21.125 C-70.39921875 20.568125 -69.5484375 20.01125 -68.671875 19.4375 C-48.35221003 6.72351969 -23.8823676 -0.36655346 0 0 Z " fill="#FAF7F6" transform="translate(129.25,67.875)"/>
    <path d="M0 0 C0.66 0 1.32 0 2 0 C2 0.66 2 1.32 2 2 C5.62197194 3.49140021 9.27566618 4.7874262 13 6 C10.26948427 13.83299463 4.22411695 19.93996291 -2.9296875 24.0078125 C-6.52491427 25.73080797 -10.15430712 26.96703712 -14 28 C-15.155 28.33 -16.31 28.66 -17.5 29 C-24.19633765 29 -29.18355729 25.00017209 -33.9375 20.5625 C-36.71851027 17.62698916 -38.12021068 15.00792912 -39 11 C-38.00613281 11.15726563 -37.01226562 11.31453125 -35.98828125 11.4765625 C-26.44730034 12.82414513 -16.6097615 13.59018855 -8.0546875 8.578125 C-5.31415679 6.47323069 -3.19595889 4.13635093 -1.15625 1.35546875 C-0.58390625 0.68451172 -0.58390625 0.68451172 0 0 Z " fill="#FCBF01" transform="translate(74,134)"/>
    <path d="M0 0 C4.24486463 1.51602308 5.82691978 4.16089161 8 8 C11.49979567 17.09946875 10.66034918 26.11436974 7 35 C-1.70065234 54.28107524 -19.53384425 66.32498343 -37.75 75.6875 C-38.42981934 76.03925293 -39.10963867 76.39100586 -39.81005859 76.75341797 C-44.63111053 79.12296316 -44.63111053 79.12296316 -48 78 C-46.60201172 77.30777344 -46.60201172 77.30777344 -45.17578125 76.6015625 C-26.4908604 67.13081902 -9.41538297 54.3444461 -1.90625 34.04296875 C-1.14166402 31.37074077 -0.52746187 28.72852457 0 26 C0.20238281 24.96875 0.40476563 23.9375 0.61328125 22.875 C1.10474679 20.25385044 1.56737118 17.63140117 2 15 C1.34 15 0.68 15 0 15 C-0.83848804 13.54462432 -1.67063934 12.08559627 -2.5 10.625 C-2.9640625 9.81289062 -3.428125 9.00078125 -3.90625 8.1640625 C-5 6 -5 6 -5 4 C-3.37373596 2.61767557 -1.7074998 1.28062485 0 0 Z " fill="#FBF9F7" transform="translate(170,79)"/>
    <path d="M0 0 C5.61 0 11.22 0 17 0 C17.53625 1.546875 18.0725 3.09375 18.625 4.6875 C20.71459114 9.78494553 22.11457741 12.33522404 27 15 C32.12625552 15.62497164 37.02775465 15.42397637 42 14 C42.84158536 15.26538369 43.67299748 16.53753779 44.5 17.8125 C44.9640625 18.52019531 45.428125 19.22789063 45.90625 19.95703125 C47 22 47 22 47 25 C46.20335937 24.99097656 45.40671875 24.98195313 44.5859375 24.97265625 C38.36915134 25.00469888 38.36915134 25.00469888 32.90234375 27.5546875 C30.91046304 29.9136224 29.37854749 32.24290501 28 35 C27.34 35 26.68 35 26 35 C25.84144531 34.03320312 25.68289062 33.06640625 25.51953125 32.0703125 C23.11165472 18.26741023 23.11165472 18.26741023 15.125 7.0625 C10.35490475 3.91423714 5.66317086 1.85805619 0 1 C0 0.67 0 0.34 0 0 Z " fill="#D50A0D" transform="translate(123,70)"/>
    <path d="M0 0 C0.66 0.33 1.32 0.66 2 1 C1.04169304 3.40170215 0.4298538 4.73596189 -1.80566406 6.10913086 C-2.53495117 6.39151611 -3.26423828 6.67390137 -4.015625 6.96484375 C-5.25868408 7.44932983 -5.25868408 7.44932983 -6.52685547 7.94360352 C-7.87481201 8.43558228 -7.87481201 8.43558228 -9.25 8.9375 C-10.17570801 9.28159912 -11.10141602 9.62569824 -12.05517578 9.98022461 C-18.89712652 12.43658955 -25.79779004 14.40974918 -32.875 16.0625 C-33.78282227 16.2783374 -34.69064453 16.4941748 -35.62597656 16.71655273 C-42.17778442 18.14051321 -48.00834365 18.59499381 -54 15 C-53.030625 14.90203125 -52.06125 14.8040625 -51.0625 14.703125 C-34.36475877 12.89364195 -17.65036022 9.09802227 -2.6640625 1.25390625 C-1.78492188 0.84011719 -0.90578125 0.42632812 0 0 Z " fill="#181814" transform="translate(133,153)"/>
    <path d="M0 0 C1.70736328 0.01353516 1.70736328 0.01353516 3.44921875 0.02734375 C6.21637881 0.0505972 8.9830676 0.08327132 11.75 0.125 C11.42 1.115 11.09 2.105 10.75 3.125 C9.95529297 3.10405273 9.16058594 3.08310547 8.34179688 3.06152344 C-13.28840848 2.38271406 -13.28840848 2.38271406 -34.25 7.125 C-35.53438965 7.58350342 -35.53438965 7.58350342 -36.84472656 8.05126953 C-49.28819217 12.52564263 -49.28819217 12.52564263 -61.25 18.125 C-61.25 17.135 -61.25 16.145 -61.25 15.125 C-41.19426187 6.25292265 -22.1980781 -0.3407025 0 0 Z " fill="#EFD7C7" transform="translate(129.25,67.875)"/>
    <path d="M0 0 C0.66 0.33 1.32 0.66 2 1 C0.54554477 4.74884958 -1.16410484 5.98474147 -4.68359375 7.83203125 C-5.61107422 8.31994141 -6.53855469 8.80785156 -7.49414062 9.31054688 C-8.46544922 9.80619141 -9.43675781 10.30183594 -10.4375 10.8125 C-11.40494141 11.32748047 -12.37238281 11.84246094 -13.36914062 12.37304688 C-18.74867205 15.16174221 -18.74867205 15.16174221 -21 16 C-21.99 15.67 -22.98 15.34 -24 15 C-23.02160156 14.50371094 -22.04320313 14.00742188 -21.03515625 13.49609375 C-13.45973948 9.59193713 -6.47820229 5.6179532 0 0 Z " fill="#F6F0ED" transform="translate(146,142)"/>
    <path d="M0 0 C-0.71542969 0.29132813 -1.43085937 0.58265625 -2.16796875 0.8828125 C-9.88024217 4.05552007 -17.4513306 7.45699549 -25 11 C-25 10.01 -25 9.02 -25 8 C-21.89660564 6.6856685 -18.79215432 5.37385219 -15.6875 4.0625 C-14.80642578 3.68931641 -13.92535156 3.31613281 -13.01757812 2.93164062 C-12.17001953 2.57392578 -11.32246094 2.21621094 -10.44921875 1.84765625 C-9.66893311 1.51773682 -8.88864746 1.18781738 -8.0847168 0.84790039 C-3.29749974 -1.09916658 -3.29749974 -1.09916658 0 0 Z " fill="#F1EADF" transform="translate(93,75)"/>
    <path d="M0 0 C-0.33 0.66 -0.66 1.32 -1 2 C-6.41336882 3.29920852 -9.89147286 2.77234615 -15 1 C-15 0.67 -15 0.34 -15 0 C-13.25093341 -0.19601608 -11.50068154 -0.38147403 -9.75 -0.5625 C-8.77546875 -0.66691406 -7.8009375 -0.77132812 -6.796875 -0.87890625 C-4.2368648 -0.98974468 -2.41851841 -0.77738092 0 0 Z " fill="#292825" transform="translate(94,168)"/>
    <path d="M0 0 C0.66 0.33 1.32 0.66 2 1 C1.3125 2.9375 1.3125 2.9375 0 5 C-2.625 5.75 -2.625 5.75 -5 6 C-5.33 5.01 -5.66 4.02 -6 3 C-4.03533587 1.93224776 -2.03144641 0.93446535 0 0 Z " fill="#1E1F1A" transform="translate(133,153)"/>
    <path d="M0 0 C0.99 0 1.98 0 3 0 C3 0.99 3 1.98 3 3 C1.02 3.66 -0.96 4.32 -3 5 C-1.125 1.125 -1.125 1.125 0 0 Z " fill="#0E100C" transform="translate(125,157)"/>
</svg>
