<svg xmlns="http://www.w3.org/2000/svg" version="1.1" width="330" height="228">
    <path d="M0 0 C7.33036399 5.15972222 11.17509895 10.52529686 14 19 C13.81525141 21.39604707 13.62732584 23.79184982 13.4375 26.1875 C13.29686674 30.19721643 13.32264893 33.14220704 15.90625 36.4140625 C17.62860008 37.70582506 19.39498807 38.94042773 21.1953125 40.12109375 C31.85145213 47.25981681 37.7732107 58.49897809 40.4921875 70.75 C43.98730227 93.11873451 35.71312742 112.96997554 23.20703125 131.05078125 C17.3824393 138.83408554 11.09517764 146.3420602 4 153 C3.34 153 2.68 153 2 153 C1.67 153.99 1.34 154.98 1 156 C-29.81879749 185.26289703 -74.27966417 205.23000197 -114.96777344 215.48242188 C-116.92464793 215.98080894 -118.87276791 216.51319202 -120.8203125 217.046875 C-128.89670748 219.20279152 -137.00772907 220.79387624 -145.25 222.1875 C-146.23178223 222.35451416 -147.21356445 222.52152832 -148.22509766 222.69360352 C-160.77505868 224.73552064 -173.24559897 225.23841171 -185.9375 225.25 C-186.70735229 225.25100708 -187.47720459 225.25201416 -188.27038574 225.25305176 C-200.72043829 225.24207458 -212.78449539 224.58989908 -225 222 C-225.67820801 221.86078125 -226.35641602 221.7215625 -227.05517578 221.578125 C-246.9661605 217.33568584 -268.45059384 207.55945083 -280.4375 190.5 C-283.25085146 185.9029675 -285.26870726 181.09399594 -287 176 C-287.3403125 175.03320312 -287.3403125 175.03320312 -287.6875 174.046875 C-292.41377726 158.42390295 -287.22711735 139.17754302 -280.02197266 125.08740234 C-275.48470986 116.77636847 -270.22373684 109.14532864 -264 102 C-263.2678125 101.15824219 -262.535625 100.31648438 -261.78125 99.44921875 C-259.55278481 96.93456368 -257.28891343 94.45966719 -255 92 C-254.38769531 91.33355469 -253.77539062 90.66710937 -253.14453125 89.98046875 C-247.03746504 83.58693035 -240.02510787 78.33036617 -233 73 C-231.60394531 71.92878906 -231.60394531 71.92878906 -230.1796875 70.8359375 C-201.22578842 49.14212058 -166.57191593 34.59413439 -131.625 25.9375 C-130.5996666 25.68128372 -130.5996666 25.68128372 -129.55361938 25.41989136 C-116.49421025 22.17437899 -103.36363169 19.64552638 -90 18 C-89.16960205 17.8961499 -88.3392041 17.7922998 -87.48364258 17.68530273 C-78.77562757 16.74249122 -70.05829874 16.88895802 -61.3125 16.9375 C-59.72461079 16.94252753 -58.13672004 16.94708821 -56.54882812 16.95117188 C-52.69917975 16.96207245 -48.84960747 16.97926717 -45 17 C-44.70504639 16.22277588 -44.41009277 15.44555176 -44.10620117 14.64477539 C-41.12282697 7.51193657 -34.91386731 2.14266696 -28 -1 C-19.28594635 -4.41727594 -8.35592894 -4.50978836 0 0 Z M-147 36 C-147.78697266 36.23879883 -148.57394531 36.47759766 -149.38476562 36.72363281 C-172.6557358 43.87128325 -194.9741829 55.22869165 -215 69 C-215.70833984 69.48049805 -216.41667969 69.96099609 -217.14648438 70.45605469 C-219.16939608 71.83293975 -221.18155534 73.22353387 -223.1875 74.625 C-223.78296631 75.03911133 -224.37843262 75.45322266 -224.99194336 75.87988281 C-226.36699494 76.86773951 -227.69007991 77.92727588 -229 79 C-229 79.66 -229 80.32 -229 81 C-229.81791016 81.34611328 -229.81791016 81.34611328 -230.65234375 81.69921875 C-251.58024339 93.29487695 -266.28798678 120.00583811 -273.94140625 141.6640625 C-277.45152856 155.55727386 -276.22649574 171.79073847 -269.1875 184.1875 C-257.49367299 202.46980028 -237.76525779 211.84419595 -217.12695312 216.54785156 C-211.44835015 217.75501096 -205.78073264 218.51929651 -200 219 C-199.24444824 219.06703125 -198.48889648 219.1340625 -197.71044922 219.203125 C-182.99528888 220.43160317 -168.66116417 219.55901673 -154 218 C-152.70578125 217.8659375 -151.4115625 217.731875 -150.078125 217.59375 C-133.70431569 215.55681678 -117.6227921 211.20759737 -102 206 C-101.03964844 205.70738281 -100.07929688 205.41476563 -99.08984375 205.11328125 C-70.76300028 196.30845367 -44.02495432 181.55938401 -20.72753906 163.34863281 C-19.15858638 162.12380316 -17.57610122 160.91635755 -15.9921875 159.7109375 C-11.66876489 156.36835107 -7.83469893 153.04221977 -4.44921875 148.73828125 C-3 147 -3 147 -0.6640625 144.6953125 C15.76342881 128.07512335 27.11534824 107.4150463 27.25 83.75 C27.270625 82.85925781 27.29125 81.96851563 27.3125 81.05078125 C27.36548079 71.92484066 25.17545664 64.30170009 20.5 56.4375 C19.9121875 55.42558594 19.324375 54.41367187 18.71875 53.37109375 C17.15371402 50.72761895 17.15371402 50.72761895 14 50 C13.5359375 49.01 13.5359375 49.01 13.0625 48 C12.16134668 45.88165174 12.16134668 45.88165174 10.1875 44.9375 C7.7210613 44.77563444 7.7210613 44.77563444 5.5 47.1875 C4.675 48.115625 3.85 49.04375 3 50 C1.66666667 51.33333333 0.33333333 52.66666667 -1 54 C0.31962069 57.42734817 1.81085533 60.67765678 3.5 63.9375 C5.33528096 67.55933764 6.86730365 71.08704898 8 75 C9.65 75 11.3 75 13 75 C11.21082621 82.41229141 11.21082621 82.41229141 9.98828125 85.8203125 C8.90093122 89.31874303 8.46223437 92.61051377 8.0625 96.25 C4.49308411 124.81225802 -14.02222569 149.67296766 -36.3125 167.0625 C-38.5210021 168.74016794 -40.75337893 170.37256961 -43 172 C-43.87140625 172.64195312 -44.7428125 173.28390625 -45.640625 173.9453125 C-62.1752389 185.83956702 -80.04481533 194.7004617 -99 202 C-99.83128418 202.32403809 -100.66256836 202.64807617 -101.51904297 202.98193359 C-108.40494804 205.58724362 -115.33319414 207.46300453 -122.5 209.125 C-124.07587891 209.50205078 -124.07587891 209.50205078 -125.68359375 209.88671875 C-160.39369816 218.08156417 -200.55338164 219.30506687 -232 200 C-239.69821446 194.78629485 -245.17519178 188.91897871 -250 181 C-250.52335937 180.18273437 -251.04671875 179.36546875 -251.5859375 178.5234375 C-259.37905647 164.61637989 -257.47298286 147.26059852 -253.375 132.5625 C-241.11185639 95.68256625 -209.91348109 68.75317119 -176.1484375 51.546875 C-173.45724586 50.2970956 -170.73679054 49.1465413 -168 48 C-166.67234939 47.40418467 -165.34560296 46.80635241 -164.01953125 46.20703125 C-126.75858303 29.62213629 -88.37809339 23.77789092 -48 29 C-48 27.35 -48 25.7 -48 24 C-51.40136542 22.86621153 -54.03876857 22.85434921 -57.625 22.83203125 C-58.27944092 22.82775116 -58.93388184 22.82347107 -59.6081543 22.81906128 C-61.73883837 22.80902928 -63.86929664 22.80901826 -66 22.8125 C-66.72751465 22.81343658 -67.4550293 22.81437317 -68.20458984 22.81533813 C-95.41089091 22.89148637 -121.04320969 27.89993662 -147 36 Z " fill="#CD0207" transform="translate(289,3)"/>
    <path d="M0 0 C7.33036399 5.15972222 11.17509895 10.52529686 14 19 C13.81525141 21.39604707 13.62732584 23.79184982 13.4375 26.1875 C13.29686674 30.19721643 13.32264893 33.14220704 15.90625 36.4140625 C17.62860008 37.70582506 19.39498807 38.94042773 21.1953125 40.12109375 C31.85145213 47.25981681 37.7732107 58.49897809 40.4921875 70.75 C43.98730227 93.11873451 35.71312742 112.96997554 23.20703125 131.05078125 C17.3824393 138.83408554 11.09517764 146.3420602 4 153 C3.34 153 2.68 153 2 153 C1.67 153.99 1.34 154.98 1 156 C-29.81879749 185.26289703 -74.27966417 205.23000197 -114.96777344 215.48242188 C-116.92464793 215.98080894 -118.87276791 216.51319202 -120.8203125 217.046875 C-128.89670748 219.20279152 -137.00772907 220.79387624 -145.25 222.1875 C-146.23178223 222.35451416 -147.21356445 222.52152832 -148.22509766 222.69360352 C-160.77505868 224.73552064 -173.24559897 225.23841171 -185.9375 225.25 C-186.70735229 225.25100708 -187.47720459 225.25201416 -188.27038574 225.25305176 C-200.72043829 225.24207458 -212.78449539 224.58989908 -225 222 C-225.67820801 221.86078125 -226.35641602 221.7215625 -227.05517578 221.578125 C-246.9661605 217.33568584 -268.45059384 207.55945083 -280.4375 190.5 C-283.25085146 185.9029675 -285.26870726 181.09399594 -287 176 C-287.3403125 175.03320312 -287.3403125 175.03320312 -287.6875 174.046875 C-292.41377726 158.42390295 -287.22711735 139.17754302 -280.02197266 125.08740234 C-275.48470986 116.77636847 -270.22373684 109.14532864 -264 102 C-263.2678125 101.15824219 -262.535625 100.31648438 -261.78125 99.44921875 C-259.55278481 96.93456368 -257.28891343 94.45966719 -255 92 C-254.38769531 91.33355469 -253.77539062 90.66710937 -253.14453125 89.98046875 C-247.03746504 83.58693035 -240.02510787 78.33036617 -233 73 C-231.60394531 71.92878906 -231.60394531 71.92878906 -230.1796875 70.8359375 C-201.22578842 49.14212058 -166.57191593 34.59413439 -131.625 25.9375 C-130.5996666 25.68128372 -130.5996666 25.68128372 -129.55361938 25.41989136 C-116.49421025 22.17437899 -103.36363169 19.64552638 -90 18 C-89.16960205 17.8961499 -88.3392041 17.7922998 -87.48364258 17.68530273 C-78.77562757 16.74249122 -70.05829874 16.88895802 -61.3125 16.9375 C-59.72461079 16.94252753 -58.13672004 16.94708821 -56.54882812 16.95117188 C-52.69917975 16.96207245 -48.84960747 16.97926717 -45 17 C-44.70504639 16.22277588 -44.41009277 15.44555176 -44.10620117 14.64477539 C-41.12282697 7.51193657 -34.91386731 2.14266696 -28 -1 C-19.28594635 -4.41727594 -8.35592894 -4.50978836 0 0 Z M-147 36 C-147.78697266 36.23879883 -148.57394531 36.47759766 -149.38476562 36.72363281 C-172.6557358 43.87128325 -194.9741829 55.22869165 -215 69 C-215.70833984 69.48049805 -216.41667969 69.96099609 -217.14648438 70.45605469 C-219.16939608 71.83293975 -221.18155534 73.22353387 -223.1875 74.625 C-223.78296631 75.03911133 -224.37843262 75.45322266 -224.99194336 75.87988281 C-226.36699494 76.86773951 -227.69007991 77.92727588 -229 79 C-229 79.66 -229 80.32 -229 81 C-229.81791016 81.34611328 -229.81791016 81.34611328 -230.65234375 81.69921875 C-251.58024339 93.29487695 -266.28798678 120.00583811 -273.94140625 141.6640625 C-277.45152856 155.55727386 -276.22649574 171.79073847 -269.1875 184.1875 C-257.49367299 202.46980028 -237.76525779 211.84419595 -217.12695312 216.54785156 C-211.44835015 217.75501096 -205.78073264 218.51929651 -200 219 C-199.24444824 219.06703125 -198.48889648 219.1340625 -197.71044922 219.203125 C-182.99528888 220.43160317 -168.66116417 219.55901673 -154 218 C-152.70578125 217.8659375 -151.4115625 217.731875 -150.078125 217.59375 C-133.70431569 215.55681678 -117.6227921 211.20759737 -102 206 C-101.03964844 205.70738281 -100.07929688 205.41476563 -99.08984375 205.11328125 C-70.76300028 196.30845367 -44.02495432 181.55938401 -20.72753906 163.34863281 C-19.15858638 162.12380316 -17.57610122 160.91635755 -15.9921875 159.7109375 C-11.66876489 156.36835107 -7.83469893 153.04221977 -4.44921875 148.73828125 C-3 147 -3 147 -0.6640625 144.6953125 C15.76342881 128.07512335 27.11534824 107.4150463 27.25 83.75 C27.270625 82.85925781 27.29125 81.96851563 27.3125 81.05078125 C27.36548079 71.92484066 25.17545664 64.30170009 20.5 56.4375 C19.9121875 55.42558594 19.324375 54.41367187 18.71875 53.37109375 C17.15371402 50.72761895 17.15371402 50.72761895 14 50 C13.5359375 49.01 13.5359375 49.01 13.0625 48 C12.16134668 45.88165174 12.16134668 45.88165174 10.1875 44.9375 C7.7210613 44.77563444 7.7210613 44.77563444 5.5 47.1875 C4.675 48.115625 3.85 49.04375 3 50 C1.66666667 51.33333333 0.33333333 52.66666667 -1 54 C0.31962069 57.42734817 1.81085533 60.67765678 3.5 63.9375 C5.33528096 67.55933764 6.86730365 71.08704898 8 75 C9.65 75 11.3 75 13 75 C12.34 78.3 11.68 81.6 11 85 C10.34 85 9.68 85 9 85 C7.92741755 86.66372163 6.94470191 88.38547677 6 90.125 C-1.8094981 103.87686047 -11.03474142 117.99360175 -25 126 C-25.97259766 126.56654297 -25.97259766 126.56654297 -26.96484375 127.14453125 C-31.84213875 129.1946802 -37.60725077 128.23605919 -42.6875 127.375 C-49.69076119 124.46798592 -53.75133074 119.81201181 -57 113 C-58.08984375 109.58984375 -58.08984375 109.58984375 -58.9375 105.9375 C-59.09806885 105.26775146 -59.2586377 104.59800293 -59.42407227 103.90795898 C-60.41062377 99.74642861 -61.30645163 95.56779224 -62.1875 91.3828125 C-62.39511963 90.41867432 -62.60273926 89.45453613 -62.81665039 88.46118164 C-63.22003786 86.57780789 -63.61059666 84.69162427 -63.98608398 82.80249023 C-65.80652123 74.30116474 -69.02287405 66.63729284 -76.08203125 61.21875 C-87.83089215 53.75307872 -104.04650869 56.53550066 -117 59 C-121.57551923 60.21564212 -126.03108662 61.69115933 -130.5 63.25 C-131.67763916 63.65186523 -132.85527832 64.05373047 -134.06860352 64.46777344 C-142.22981951 67.28848842 -150.15025065 70.39871872 -158 74 C-170.53449782 79.55917031 -170.53449782 79.55917031 -177 80 C-179.50802451 76.23796323 -179.38246591 73.17678864 -179.375 68.8125 C-179.37628906 68.04671631 -179.37757813 67.28093262 -179.37890625 66.49194336 C-179.26990491 60.68576426 -178.21119561 56.91714328 -175 52 C-175 51.34 -175 50.68 -175 50 C-174.40574219 49.84144531 -173.81148438 49.68289062 -173.19921875 49.51953125 C-168.5930716 48.22293306 -164.27483401 46.74335717 -159.95703125 44.671875 C-124.51480926 28.33114528 -86.41251086 24.03210021 -48 29 C-48 27.35 -48 25.7 -48 24 C-51.40136542 22.86621153 -54.03876857 22.85434921 -57.625 22.83203125 C-58.27944092 22.82775116 -58.93388184 22.82347107 -59.6081543 22.81906128 C-61.73883837 22.80902928 -63.86929664 22.80901826 -66 22.8125 C-66.72751465 22.81343658 -67.4550293 22.81437317 -68.20458984 22.81533813 C-95.41089091 22.89148637 -121.04320969 27.89993662 -147 36 Z " fill="#FACD00" transform="translate(289,3)"/>
    <path d="M0 0 C5.04722242 2.18861857 9.10563555 5.28325793 12 10 C12.56730292 11.54587093 13.10047124 13.10454381 13.60546875 14.671875 C14.00028442 15.88762207 14.00028442 15.88762207 14.40307617 17.12792969 C14.60006104 17.74571289 14.7970459 18.36349609 15 19 C14.45174561 19.32685791 13.90349121 19.65371582 13.33862305 19.99047852 C-1.45893435 28.78850531 -1.45893435 28.78850531 -16 38 C-16.74862305 38.48694336 -17.49724609 38.97388672 -18.26855469 39.47558594 C-28.63307762 46.22888673 -38.78083574 53.08139856 -48.3828125 60.890625 C-51 63 -51 63 -54 65 C-51.5619544 64.71245133 -49.12464533 64.42001127 -46.6875 64.125 C-46.01654297 64.04636719 -45.34558594 63.96773437 -44.65429688 63.88671875 C-40.68285966 63.40194238 -36.80207761 62.75980869 -32.8828125 61.953125 C-25.99634261 60.67845012 -19.17401211 60.63206065 -12.1875 60.625 C-10.29161133 60.58826172 -10.29161133 60.58826172 -8.35742188 60.55078125 C3.14817398 60.5154338 13.50215988 62.21262252 23 69 C24.010625 69.70125 25.02125 70.4025 26.0625 71.125 C30.0826389 74.52259771 31.9540688 79.25581171 34 84 C34.55107422 85.21236328 34.55107422 85.21236328 35.11328125 86.44921875 C38.6339223 96.57687781 35.45092454 108.62352628 31 118 C28.40310935 121.02589241 25.60272459 122.37280257 22 124 C20.8040109 124.61738345 19.61154398 125.2416178 18.421875 125.87109375 C-17.42910787 144.62288204 -17.42910787 144.62288204 -30 144 C-28.8951821 142.8951821 -27.78997765 141.79074967 -26.68359375 140.6875 C-25.42071997 139.42169612 -24.16390639 138.14984126 -22.91015625 136.875 C-16.25286434 130.13804819 -16.25286434 130.13804819 -12.625 127.3125 C-5.28313034 121.17421553 5.25589264 109.54550974 6.22265625 99.7421875 C6.28375827 97.2879999 6.28375827 97.2879999 6 94 C4.824375 93.5359375 4.824375 93.5359375 3.625 93.0625 C1 92 1 92 -1 91 C-13.84039329 89.88359115 -26.41535209 91.39103513 -39.02294922 93.65820312 C-51.50154149 95.81552952 -67.92349306 97.65952324 -79.25 91.125 C-84.48007264 87.08358024 -87.48197346 83.58911518 -89 77 C-90.0033904 67.68474044 -88.3913196 60.9639002 -82.8125 53.5 C-81.56181643 51.98315856 -80.29106338 50.48262359 -79 49 C-78.44828125 48.36449219 -77.8965625 47.72898438 -77.328125 47.07421875 C-61.66506798 30.33692552 -39.64290175 18.25962675 -20.02734375 6.80859375 C-17.46768972 5.27940689 -15.06057 3.65141963 -12.625 1.9375 C-8.51566127 -0.61527103 -4.71136728 -1.02778518 0 0 Z " fill="#FBCD00" transform="translate(203,66)"/>
    <path d="M0 0 C-0.33 1.65 -0.66 3.3 -1 5 C-1.99104736 5.01981934 -2.98209473 5.03963867 -4.00317383 5.06005859 C-37.6594808 5.75681914 -68.65635826 8.90685886 -101 19 C-101.78697266 19.23879883 -102.57394531 19.47759766 -103.38476562 19.72363281 C-130.52000562 28.05818907 -156.60426942 41.85807567 -178.84765625 59.453125 C-181 61 -181 61 -183 61 C-183 61.66 -183 62.32 -183 63 C-184.53913447 64.32401922 -186.13459432 65.58269257 -187.75 66.8125 C-206.25326916 81.71000389 -221.47837421 102.63927551 -227 126 C-227.18304688 126.71542969 -227.36609375 127.43085938 -227.5546875 128.16796875 C-230.33983264 145.88051459 -226.98516044 159.59262794 -216.8125 174.125 C-201.57645256 191.1817072 -175.91233682 198.17785434 -154 200 C-153.24444824 200.06703125 -152.48889648 200.1340625 -151.71044922 200.203125 C-136.99528888 201.43160317 -122.66116417 200.55901673 -108 199 C-106.70578125 198.8659375 -105.4115625 198.731875 -104.078125 198.59375 C-87.70431569 196.55681678 -71.6227921 192.20759737 -56 187 C-55.03964844 186.70738281 -54.07929688 186.41476563 -53.08984375 186.11328125 C-21.91757066 176.4240093 9.77467895 159.56196153 33.6171875 137.109375 C35 136 35 136 37 136 C37.33 135.01 37.66 134.02 38 133 C40.4375 130.3125 40.4375 130.3125 43 128 C43.66 128 44.32 128 45 128 C45.22429687 127.47148437 45.44859375 126.94296875 45.6796875 126.3984375 C47.09745288 123.82297021 48.81840549 121.64992313 50.68115234 119.3828125 C63.71104328 103.51957024 72.13140854 86.5924499 72.25 65.75 C72.270625 64.85925781 72.29125 63.96851563 72.3125 63.05078125 C72.38100979 51.24996987 68.28472192 40.26927365 60.50390625 31.26953125 C59.35403747 30.16060736 58.17897889 29.07792355 57 28 C55.5 26.125 55.5 26.125 55 24 C56.375 20.25 56.375 20.25 58 17 C62.84376983 17.42660725 65.54094803 19.7725194 68.9375 23 C69.46601563 23.4962085 69.99453125 23.99241699 70.5390625 24.50366211 C81.22118231 34.79179632 86.906671 48.13830358 87.375 62.9375 C86.88569441 90.33861277 71.27988653 113.24161382 52.7890625 132.3828125 C50 135 50 135 48 135 C47.67 135.99 47.34 136.98 47 138 C16.18120251 167.26289703 -28.27966417 187.23000197 -68.96777344 197.48242188 C-70.92464793 197.98080894 -72.87276791 198.51319202 -74.8203125 199.046875 C-82.89670748 201.20279152 -91.00772907 202.79387624 -99.25 204.1875 C-100.23178223 204.35451416 -101.21356445 204.52152832 -102.22509766 204.69360352 C-114.77505868 206.73552064 -127.24559897 207.23841171 -139.9375 207.25 C-140.70735229 207.25100708 -141.47720459 207.25201416 -142.27038574 207.25305176 C-154.72043829 207.24207458 -166.78449539 206.58989908 -179 204 C-179.67820801 203.86078125 -180.35641602 203.7215625 -181.05517578 203.578125 C-200.9661605 199.33568584 -222.45059384 189.55945083 -234.4375 172.5 C-237.25085146 167.9029675 -239.26870726 163.09399594 -241 158 C-241.3403125 157.03320312 -241.3403125 157.03320312 -241.6875 156.046875 C-246.41377726 140.42390295 -241.22711735 121.17754302 -234.02197266 107.08740234 C-229.48470986 98.77636847 -224.22373684 91.14532864 -218 84 C-217.2678125 83.15824219 -216.535625 82.31648438 -215.78125 81.44921875 C-213.55278481 78.93456368 -211.28891343 76.45966719 -209 74 C-208.38769531 73.33355469 -207.77539062 72.66710937 -207.14453125 71.98046875 C-201.03746504 65.58693035 -194.02510787 60.33036617 -187 55 C-185.60394531 53.92878906 -185.60394531 53.92878906 -184.1796875 52.8359375 C-150.16125007 27.34749632 -109.97343585 13.41782087 -69 4 C-67.94586914 3.75266113 -66.89173828 3.50532227 -65.80566406 3.25048828 C-44.23154863 -1.62026355 -21.97196721 -0.38291517 0 0 Z " fill="#D7D7D7" transform="translate(243,21)"/>
    <path d="M0 0 C7.33036399 5.15972222 11.17509895 10.52529686 14 19 C14.07051114 21.73865287 14.09357765 24.45027588 14.0625 27.1875 C14.05798828 27.93708984 14.05347656 28.68667969 14.04882812 29.45898438 C14.03706354 31.30602383 14.01912865 33.15302213 14 35 C13.34 35 12.68 35 12 35 C11.92265625 35.96099609 11.92265625 35.96099609 11.84375 36.94140625 C11.13924315 42.31327097 10.2444113 45.34567973 6 48.875 C4.948125 49.64457031 4.948125 49.64457031 3.875 50.4296875 C1.69590693 52.25467795 0.6850551 53.22035196 0 56 C1.27594235 59.15155281 1.27594235 59.15155281 3.3125 62.375 C5.87366546 66.6721224 7.47866657 69.9982213 8 75 C7.40574219 75.02916504 6.81148438 75.05833008 6.19921875 75.08837891 C3.46374621 75.23887244 0.73276296 75.43162692 -2 75.625 C-3.40185547 75.69267578 -3.40185547 75.69267578 -4.83203125 75.76171875 C-11.76193273 76.29478809 -16.08019068 78.04148468 -21 83 C-23.00410388 85.34755552 -24.7445819 87.79659692 -26.4375 90.375 C-27.93873913 92.59889225 -29.45707875 94.80442005 -31 97 C-31.33 97 -31.66 97 -32 97 C-32.13462646 96.08057617 -32.13462646 96.08057617 -32.27197266 95.14257812 C-35.24656604 75.33171211 -39.16877289 53.08260151 -55.62890625 39.67578125 C-59.56705196 36.89247893 -63.54551864 34.83266363 -68 33 C-69.27423828 32.41025391 -69.27423828 32.41025391 -70.57421875 31.80859375 C-82.38466561 27.18431237 -95.54857876 28.65215757 -108 29 C-108 28.67 -108 28.34 -108 28 C-89.00774554 25.54372691 -66.55563473 22.81478842 -48 29 C-48 27.35 -48 25.7 -48 24 C-48.99 23.67 -49.98 23.34 -51 23 C-49.68 22.67 -48.36 22.34 -47 22 C-46.67 20.68 -46.34 19.36 -46 18 C-56.89 18 -67.78 18 -79 18 C-79 17.67 -79 17.34 -79 17 C-67.78 17 -56.56 17 -45 17 C-44.01 14.525 -44.01 14.525 -43 12 C-33.1514486 -1.42572639 -15.67698257 -8.46104294 0 0 Z " fill="#F6CA00" transform="translate(289,3)"/>
    <path d="M0 0 C0.66 0 1.32 0 2 0 C3.18779635 1.44461719 4.37267406 2.8934651 5.48828125 4.39453125 C9.24335909 8.38248213 13.57683981 9.57690541 18.8125 10.6875 C19.97394531 10.93886719 21.13539063 11.19023437 22.33203125 11.44921875 C23.21246094 11.63097656 24.09289062 11.81273437 25 12 C20.85652526 26.58848399 7.33248623 38.60618463 -5.39208984 46.01269531 C-17.15082918 52.56811077 -31.41628878 57.04211497 -45 55 C-48.7387739 53.48893536 -51.78146525 51.40874315 -55 49 C-55.845625 48.40832031 -56.69125 47.81664062 -57.5625 47.20703125 C-64.23588345 42.27320355 -71.13945019 35.87649065 -73.71484375 27.7421875 C-74 25.8125 -74 25.8125 -74 23 C-72.27054347 23.14235457 -70.54144346 23.28904382 -68.8125 23.4375 C-67.36810547 23.55931641 -67.36810547 23.55931641 -65.89453125 23.68359375 C-63 24 -63 24 -60.64916992 24.50488281 C-45.64215885 27.3096214 -28.7246148 26.2158238 -15.75 17.875 C-9.52033784 13.16203663 -3.19649549 7.2420601 0 0 Z " fill="#F9CB00" transform="translate(111,154)"/>
    <path d="M0 0 C4.84376983 0.42660725 7.54094803 2.7725194 10.9375 6 C11.46601563 6.4962085 11.99453125 6.99241699 12.5390625 7.50366211 C23.22118231 17.79179632 28.906671 31.13830358 29.375 45.9375 C28.88569441 73.33861277 13.27988653 96.24161382 -5.2109375 115.3828125 C-8 118 -8 118 -10 118 C-10.495 119.485 -10.495 119.485 -11 121 C-38.80803581 147.40413498 -83.40489892 171.55082957 -121 179 C-121.99 178.67 -122.98 178.34 -124 178 C-123.67 176.35 -123.34 174.7 -123 173 C-122.4738208 172.83508057 -121.9476416 172.67016113 -121.40551758 172.50024414 C-86.41287618 161.43303254 -51.4047517 145.5560442 -24.3828125 120.109375 C-23 119 -23 119 -21 119 C-20.505 117.515 -20.505 117.515 -20 116 C-17.5625 113.3125 -17.5625 113.3125 -15 111 C-14.34 111 -13.68 111 -13 111 C-12.77570313 110.47148437 -12.55140625 109.94296875 -12.3203125 109.3984375 C-10.90254712 106.82297021 -9.18159451 104.64992313 -7.31884766 102.3828125 C5.71104328 86.51957024 14.13140854 69.5924499 14.25 48.75 C14.270625 47.85925781 14.29125 46.96851563 14.3125 46.05078125 C14.38100979 34.24996987 10.28472192 23.26927365 2.50390625 14.26953125 C1.35403747 13.16060736 0.17897889 12.07792355 -1 11 C-2.5 9.125 -2.5 9.125 -3 7 C-1.625 3.25 -1.625 3.25 0 0 Z " fill="#DCDCDC" transform="translate(301,38)"/>
    <path d="M0 0 C1.32 0 2.64 0 4 0 C4.00386719 1.66675781 4.00386719 1.66675781 4.0078125 3.3671875 C4.18143659 12.50145817 4.62139251 19.87745124 11 27 C18.36588595 33.98514433 25.50379618 35.44175877 35.50390625 35.3359375 C39.64571862 34.93795329 42.6957389 33.84140451 46.328125 31.875 C48 31 48 31 50 31 C51.32340798 33.36947306 52.63371607 35.74475856 53.9375 38.125 C54.31068359 38.79015625 54.68386719 39.4553125 55.06835938 40.140625 C57.22500398 44.10418806 58.55180908 47.43272113 59 52 C58.40574219 52.02916504 57.81148438 52.05833008 57.19921875 52.08837891 C54.46374621 52.23887244 51.73276296 52.43162692 49 52.625 C48.06542969 52.67011719 47.13085938 52.71523437 46.16796875 52.76171875 C39.23806727 53.29478809 34.91980932 55.04148468 30 60 C27.99589612 62.34755552 26.2554181 64.79659692 24.5625 67.375 C23.06126087 69.59889225 21.54292125 71.80442005 20 74 C19.67 74 19.34 74 19 74 C18.86537354 73.08057617 18.86537354 73.08057617 18.72802734 72.14257812 C15.75343396 52.33171211 11.83122711 30.08260151 -4.62890625 16.67578125 C-8.56705196 13.89247893 -12.54551864 11.83266363 -17 10 C-17.84949219 9.60683594 -18.69898438 9.21367188 -19.57421875 8.80859375 C-31.38466561 4.18431237 -44.54857876 5.65215757 -57 6 C-57 5.67 -57 5.34 -57 5 C-38.00774554 2.54372691 -15.55563473 -0.18521158 3 6 C3 4.35 3 2.7 3 1 C2.01 0.67 1.02 0.34 0 0 Z " fill="#C80607" transform="translate(238,26)"/>
    <path d="M0 0 C0.66 0.33 1.32 0.66 2 1 C-0.94773418 3.99707817 -3.90191208 6.98760494 -6.86230469 9.97216797 C-7.86899728 10.98893399 -8.87388966 12.00748562 -9.87695312 13.02783203 C-11.31694371 14.49201218 -12.76323256 15.94970205 -14.2109375 17.40625 C-15.08024902 18.28603516 -15.94956055 19.16582031 -16.84521484 20.07226562 C-19 22 -19 22 -21 22 C-19.71437794 19.17521536 -18.37273833 17.12403631 -16.171875 14.94140625 C-15.34236328 14.11479492 -15.34236328 14.11479492 -14.49609375 13.27148438 C-13.63177734 12.42553711 -13.63177734 12.42553711 -12.75 11.5625 C-12.18925781 11.00240234 -11.62851562 10.44230469 -11.05078125 9.86523438 C-7.51724754 6.3684233 -3.86168223 3.13030302 0 0 Z " fill="#A8A9A7" transform="translate(48,82)"/>
    <path d="M0 0 C0.66 0.33 1.32 0.66 2 1 C0.92173635 2.27513763 -0.16285519 3.54492569 -1.25 4.8125 C-1.85328125 5.52019531 -2.4565625 6.22789063 -3.078125 6.95703125 C-4.92370398 8.91889671 -6.79945332 10.45669625 -9 12 C-7.55575365 8.76138697 -5.74227753 6.38030837 -3.375 3.75 C-2.74335938 3.04359375 -2.11171875 2.3371875 -1.4609375 1.609375 C-0.97882813 1.07828125 -0.49671875 0.5471875 0 0 Z " fill="#A68A00" transform="translate(254,6)"/>
    <path d="M0 0 C1.98 0.66 3.96 1.32 6 2 C2.5647952 4.29013653 1.014669 4.17842973 -3 4 C-2.01 2.68 -1.02 1.36 0 0 Z " fill="#B48400" transform="translate(176,206)"/>
</svg>
